<?xml version="1.0" standalone="no"?>
<!DOCTYPE svg PUBLIC "-//W3C//DTD SVG 20010904//EN"
 "http://www.w3.org/TR/2001/REC-SVG-20010904/DTD/svg10.dtd">
<svg version="1.0" xmlns="http://www.w3.org/2000/svg"
 width="1535.000000pt" height="505.000000pt" viewBox="0 0 1535.000000 505.000000"
 preserveAspectRatio="xMidYMid meet">

<g transform="translate(0.000000,505.000000) scale(0.100000,-0.100000)"
fill="#000000" stroke="none">
<path d="M0 2525 l0 -2525 7675 0 7675 0 0 2525 0 2525 -7675 0 -7675 0 0
-2525z m13164 593 c99 -101 242 -256 436 -472 294 -327 352 -391 359 -394 9
-3 9 -4 10 511 l1 407 105 0 104 0 3 -82 c2 -46 2 -368 0 -715 l-2 -633 -28 0
c-24 0 -52 28 -187 182 -140 159 -418 467 -554 613 -26 28 -71 76 -99 108
l-52 57 -1 -157 c-5 -552 -7 -731 -8 -750 -1 -22 -4 -23 -106 -23 l-105 0 0
704 c0 387 3 711 6 720 3 9 11 16 16 16 6 0 51 -42 102 -92z m-11269 34 c94
-32 185 -77 185 -93 0 -14 -94 -161 -106 -166 -7 -2 -39 9 -71 26 -82 41 -167
61 -259 61 -93 0 -133 -16 -178 -73 -26 -33 -31 -48 -31 -92 0 -81 40 -117
209 -191 279 -121 361 -178 422 -295 26 -50 29 -63 29 -164 0 -99 -3 -116 -27
-167 -79 -169 -260 -259 -492 -245 -120 8 -180 23 -286 73 -123 57 -123 57
-59 160 30 47 59 88 65 91 6 2 38 -11 70 -30 98 -57 178 -81 269 -81 89 1 135
16 177 61 54 56 61 119 24 199 -36 77 -113 128 -324 213 -204 82 -279 155
-312 303 -32 144 59 317 203 388 102 49 158 60 287 56 96 -3 130 -8 205 -34z
m1157 24 c297 -57 523 -281 579 -574 17 -89 6 -259 -21 -347 -24 -75 -82 -185
-132 -248 -82 -103 -239 -203 -375 -238 -105 -27 -269 -27 -375 0 -178 46
-327 157 -436 325 -96 149 -129 376 -82 560 92 362 466 594 842 522z m2988
-16 c318 -108 513 -370 513 -690 0 -124 -17 -200 -73 -315 -83 -172 -231 -303
-421 -372 -68 -25 -86 -27 -229 -28 -144 0 -161 2 -235 28 -224 77 -376 233
-461 472 -26 74 -26 336 -1 419 68 219 224 385 448 475 82 33 140 40 274 36
90 -2 136 -8 185 -25z m6354 4 c188 -49 358 -188 450 -370 118 -233 95 -533
-58 -747 -64 -90 -144 -158 -248 -212 -287 -149 -611 -103 -833 120 -143 143
-206 302 -206 520 0 140 16 210 80 332 152 292 492 441 815 357z m-8481 -36
c64 -69 405 -439 576 -627 152 -166 250 -271 253 -271 2 0 3 207 3 460 0 399
2 462 15 470 20 13 187 13 195 0 8 -13 7 -1299 -1 -1362 -7 -49 -23 -72 -46
-66 -13 3 -70 63 -307 327 -57 64 -134 148 -170 186 -55 59 -120 131 -252 278
-9 9 -49 55 -90 101 l-74 84 -5 -472 -5 -471 -107 -3 c-106 -3 -108 -2 -109
20 0 13 0 77 0 143 0 66 0 375 1 688 l0 567 37 0 c31 0 44 -8 86 -52z m2996
36 c9 -10 61 -127 219 -494 60 -140 133 -309 163 -374 l53 -120 29 65 c16 35
65 147 109 249 43 102 85 199 93 215 15 33 79 182 144 340 23 55 49 107 58
117 19 21 85 25 101 6 5 -7 17 -67 26 -133 10 -66 33 -219 52 -340 19 -121 46
-296 60 -390 13 -93 36 -237 49 -320 13 -82 25 -166 27 -185 l3 -35 -107 -3
-107 -3 -5 33 c-3 18 -21 141 -41 273 -19 132 -42 281 -50 330 -7 50 -17 116
-21 148 -3 31 -9 57 -13 57 -3 0 -24 -44 -47 -98 -22 -53 -103 -242 -179 -419
l-139 -323 -38 0 c-30 0 -40 5 -48 23 -15 37 -222 501 -295 664 -38 84 -72
150 -77 147 -4 -3 -8 -20 -8 -37 0 -18 -7 -75 -15 -127 -8 -52 -33 -220 -55
-374 -22 -153 -43 -282 -46 -287 -3 -5 -49 -9 -103 -9 -95 0 -124 9 -115 34 3
11 62 373 109 676 103 674 105 685 122 698 18 13 79 11 92 -4z m1950 -49 c38
-79 144 -319 253 -575 55 -129 137 -318 183 -420 134 -300 147 -331 141 -346
-4 -11 -29 -14 -110 -14 -125 0 -109 -15 -192 178 l-56 132 -297 0 -297 0 -64
-142 c-35 -79 -68 -149 -73 -155 -13 -17 -237 -18 -237 -1 0 6 56 131 124 277
68 146 187 406 264 576 189 421 234 518 246 533 5 8 25 12 50 10 38 -3 42 -6
65 -53z m1449 -52 l-3 -108 -184 -2 c-101 -2 -186 -5 -188 -7 -2 -2 -6 -266
-8 -586 -2 -320 -5 -584 -8 -586 -2 -2 -51 -5 -108 -7 l-104 -2 -3 593 -2 592
-185 1 c-102 1 -191 2 -197 3 -13 1 -25 174 -14 202 4 12 91 14 506 14 l501 0
-3 -107z m827 83 c136 -43 226 -121 282 -242 32 -70 42 -180 23 -251 -20 -74
-75 -167 -128 -213 -36 -33 -112 -78 -159 -96 -3 -1 187 -341 266 -477 28 -49
49 -93 46 -97 -3 -5 -38 -7 -78 -4 -39 2 -93 4 -119 4 -46 0 -48 1 -81 53 -39
61 -156 275 -217 397 -23 47 -44 87 -47 90 -2 3 -58 7 -124 10 l-119 5 0 -278
0 -278 -112 3 -113 3 -1 635 c-1 349 1 663 4 698 l4 62 299 0 c287 0 301 -1
374 -24z"/>
<path d="M2847 2958 c-186 -18 -362 -175 -412 -363 -17 -68 -19 -169 -4 -235
30 -131 144 -282 254 -336 148 -72 321 -72 463 0 55 28 148 114 184 171 119
190 96 448 -54 611 -106 115 -260 169 -431 152z"/>
<path d="M5703 2950 c-110 -26 -255 -144 -306 -250 -60 -124 -71 -265 -32
-396 32 -110 135 -232 239 -283 77 -38 133 -50 221 -51 318 0 559 308 480 615
-46 178 -179 316 -350 361 -53 15 -199 17 -252 4z"/>
<path d="M12093 2946 c-170 -41 -301 -176 -348 -356 -33 -126 -5 -303 63 -402
111 -161 284 -238 469 -210 277 44 469 334 398 606 -70 268 -322 425 -582 362z"/>
<path d="M8760 2718 c-12 -29 -28 -66 -36 -83 -67 -149 -160 -376 -155 -379 8
-5 422 1 427 7 5 5 -197 492 -211 505 -1 1 -12 -21 -25 -50z"/>
<path d="M10680 2742 l0 -220 114 -7 c197 -12 297 7 362 70 108 104 74 285
-66 349 -39 17 -71 21 -227 24 l-183 4 0 -220z"/>
</g>
</svg>
